<svg width="71" height="71" viewBox="0 0 491.87 463.71">
  <path
    fill="#478cbf"
    d="M461.74 315.88s-.72-4.4-1.13-4.36l-79.82 7.7a13 13 0 00-11.73 12l-2.2 31.44-61.75 4.41-4.2-28.48A13.08 13.08 0 00288 327.51h-84.21a13.09 13.09 0 00-12.87 11.12l-4.21 28.48L125 362.7l-2.19-31.44a13 13 0 00-11.73-12l-79.86-7.7c-.41 0-.72 4.36-1.13 4.36l-.11 17.28 67.64 10.9 2.22 31.71a13.08 13.08 0 0012 12.07l85.05 6.06h1a13.08 13.08 0 0012.85-11.11l4.26-29.32h61.8l4.32 29.32A13.09 13.09 0 00294 393.94h.93l85.07-6.1a13.08 13.08 0 0012-12.07l2.21-31.71 67.6-10.95z"
  ></path>
  <path
    fill="#fff"
    d="M30.07 185.77V316a5.53 5.53 0 01.71 0l79.87 7.69a8.61 8.61 0 017.75 8l2.46 35.31 69.65 5 4.8-32.54a8.59 8.59 0 018.5-7.34h84.26a8.59 8.59 0 018.5 7.34l4.8 32.54 69.63-5 2.46-35.25a8.61 8.61 0 017.75-8l79.82-7.69a5.63 5.63 0 01.71 0V185.78h.3a470 470 0 0029.76-42.91c-12.47-21.22-27.75-40.2-44.08-57.76A435.23 435.23 0 00404 110.55c-7-6.91-14.78-12.56-22.48-18.47-7.52-6.08-16.03-10.52-24.11-15.7a500.18 500.18 0 004.07-53.94C340.64 12 318.41 5 295.93 0a467.37 467.37 0 00-24.33 47.39 165.82 165.82 0 00-25.53-2h-.32a165.82 165.82 0 00-25.53 2A462.33 462.33 0 00195.89 0c-22.46 5-44.7 12-65.52 22.44a495.31 495.31 0 004.07 53.94c-8.09 5.18-16.59 9.63-24.15 15.7-7.68 5.92-15.53 11.56-22.49 18.47a429.1 429.1 0 00-43.74-25.44C27.73 102.69 12.46 121.65 0 142.87a468 468 0 0029.76 42.91z"
  ></path>
  <path
    fill="#fff"
    d="M390.15 340.07l-2.47 35.43a8.59 8.59 0 01-8 8l-85.06 6.07H294a8.59 8.59 0 01-8.5-7.34l-4.88-33.07h-69.38l-4.87 33.07a8.6 8.6 0 01-9.12 7.32l-85.07-6.07a8.6 8.6 0 01-8-8l-2.47-35.43-71.81-6.93c0 7.72.13 16.17.13 17.86 0 75.82 96.19 112.29 215.72 112.71h.29c119.53-.42 215.7-36.87 215.7-112.71 0-1.72.1-10.14.14-17.86z"
  ></path>
  <path
    fill="#478cbf"
    d="M180.85 238.63a48.12 48.12 0 11-48.11-48.09 48.12 48.12 0 0148.11 48.09"
  ></path>
  <path
    fill="#414042"
    d="M169.34 241.36a31.95 31.95 0 11-31.94-31.94 31.93 31.93 0 0131.94 31.94"
  ></path>
  <path
    fill="#478cbf"
    d="M246 291.1c-8.55 0-15.49-6.3-15.49-14.07v-44.3c0-7.77 6.94-14.08 15.49-14.08s15.51 6.31 15.51 14.08V277c0 7.77-6.95 14.07-15.51 14.07M311 238.63a48.13 48.13 0 1048.14-48.09A48.13 48.13 0 00311 238.63"
  ></path>
  <path
    fill="#414042"
    d="M322.66 241.36a31.94 31.94 0 1031.93-31.94 31.92 31.92 0 00-31.93 31.94"
  ></path>
</svg>